<svg width="9" height="41" viewBox="0 0 9 41" fill="none" xmlns="http://www.w3.org/2000/svg">
<path d="M9 6.99841C9 3.41507 6.98129 0.5 4.49995 0.5C2.01861 0.5 0 3.41507 0 6.99841C0 10.3878 1.80637 13.1779 4.1018 13.47V18.1471H3.1552V40.5H5.84446V18.147H4.89798V13.4699C7.19352 13.1777 9 10.3878 9 6.99841ZM5.04839 19.0102V39.6367H3.95161V19.0102H5.04839ZM4.49995 12.6338C2.45778 12.6338 0.796403 10.1056 0.796403 6.99829C0.796403 3.89095 2.45778 1.36281 4.49995 1.36281C6.54222 1.36281 8.2037 3.89095 8.2037 6.99829C8.2037 10.1056 6.54222 12.6338 4.49995 12.6338Z" fill="#DCCA87"/>
</svg>
